<?xml version="1.0" encoding="utf-8"?>
<!-- Generator: Adobe Illustrator 17.0.0, SVG Export Plug-In . SVG Version: 6.00 Build 0)  -->
<!DOCTYPE svg PUBLIC "-//W3C//DTD SVG 1.1//EN" "http://www.w3.org/Graphics/SVG/1.1/DTD/svg11.dtd">
<svg version="1.1" id="Layer_1" xmlns="http://www.w3.org/2000/svg" xmlns:xlink="http://www.w3.org/1999/xlink" x="0px" y="0px"
	 width="18px" height="17px" viewBox="0 0 18 17" enable-background="new 0 0 18 17" xml:space="preserve">
<g>
	<g>
		<defs>
			<path id="SVGID_1_" d="M11.008,6.746c-0.277,0-0.554-0.202-0.623-0.472L9,2.631L7.615,6.274c-0.138,0.337-0.554,0.54-0.9,0.405
				C6.369,6.611,6.231,6.206,6.3,5.869l2.008-5.397C8.446,0.202,8.723,0,9,0s0.554,0.202,0.623,0.472l2.008,5.397
				c0.138,0.337-0.069,0.742-0.415,0.877H11.008z"/>
		</defs>
		<linearGradient id="SVGID_2_" gradientUnits="userSpaceOnUse" x1="6.2827" y1="3.373" x2="11.6741" y2="3.373">
			<stop  offset="0" style="stop-color:#84BE41"/>
			<stop  offset="1" style="stop-color:#19C4DA"/>
		</linearGradient>
		<use xlink:href="#SVGID_1_"  overflow="visible" fill-rule="evenodd" clip-rule="evenodd" fill="url(#SVGID_2_)"/>
		<clipPath id="SVGID_3_">
			<use xlink:href="#SVGID_1_"  overflow="visible"/>
		</clipPath>
		<g clip-path="url(#SVGID_3_)">
			<defs>
				<rect id="SVGID_4_" x="-36" y="-438" width="375" height="667"/>
			</defs>
			<linearGradient id="SVGID_5_" gradientUnits="userSpaceOnUse" x1="-36" y1="-104.5" x2="339" y2="-104.5">
				<stop  offset="0" style="stop-color:#84BE41"/>
				<stop  offset="1" style="stop-color:#19C4DA"/>
			</linearGradient>
			<use xlink:href="#SVGID_4_"  overflow="visible" fill="url(#SVGID_5_)"/>
			<clipPath id="SVGID_6_">
				<use xlink:href="#SVGID_4_"  overflow="visible"/>
			</clipPath>
			<linearGradient id="SVGID_7_" gradientUnits="userSpaceOnUse" x1="1.2827" y1="3.373" x2="16.6741" y2="3.373">
				<stop  offset="0" style="stop-color:#84BE41"/>
				<stop  offset="1" style="stop-color:#19C4DA"/>
			</linearGradient>
			<rect x="1.283" y="-5" clip-path="url(#SVGID_6_)" fill="url(#SVGID_7_)" width="15.391" height="16.746"/>
		</g>
	</g>
	<g>
		<defs>
			<path id="SVGID_8_" d="M14.538,16.19c-0.138,0-0.277-0.067-0.415-0.135l-5.538-3.98c-0.277-0.202-0.346-0.675-0.138-0.944
				c0.208-0.27,0.692-0.337,0.969-0.135l3.669,2.631l-1.523-4.183c-0.138-0.337,0.069-0.742,0.415-0.877
				c0.346-0.135,0.762,0.067,0.9,0.405l2.354,6.274c0.138,0.27,0,0.607-0.208,0.742C14.815,16.123,14.677,16.19,14.538,16.19z"/>
		</defs>
		<linearGradient id="SVGID_9_" gradientUnits="userSpaceOnUse" x1="8.3254" y1="12.3578" x2="15.2865" y2="12.3578">
			<stop  offset="0" style="stop-color:#84BE41"/>
			<stop  offset="1" style="stop-color:#19C4DA"/>
		</linearGradient>
		<use xlink:href="#SVGID_8_"  overflow="visible" fill-rule="evenodd" clip-rule="evenodd" fill="url(#SVGID_9_)"/>
		<clipPath id="SVGID_10_">
			<use xlink:href="#SVGID_8_"  overflow="visible"/>
		</clipPath>
		<g clip-path="url(#SVGID_10_)">
			<defs>
				<rect id="SVGID_11_" x="-36" y="-438" width="375" height="667"/>
			</defs>
			<linearGradient id="SVGID_12_" gradientUnits="userSpaceOnUse" x1="-36" y1="-104.5" x2="339" y2="-104.5">
				<stop  offset="0" style="stop-color:#84BE41"/>
				<stop  offset="1" style="stop-color:#19C4DA"/>
			</linearGradient>
			<use xlink:href="#SVGID_11_"  overflow="visible" fill="url(#SVGID_12_)"/>
			<clipPath id="SVGID_13_">
				<use xlink:href="#SVGID_11_"  overflow="visible"/>
			</clipPath>
			<linearGradient id="SVGID_14_" gradientUnits="userSpaceOnUse" x1="3.3254" y1="12.3578" x2="20.2865" y2="12.3578">
				<stop  offset="0" style="stop-color:#84BE41"/>
				<stop  offset="1" style="stop-color:#19C4DA"/>
			</linearGradient>
			<rect x="3.325" y="3.525" clip-path="url(#SVGID_13_)" fill="url(#SVGID_14_)" width="16.961" height="17.665"/>
		</g>
	</g>
	<g>
		<defs>
			<path id="SVGID_15_" d="M12.185,9.917c-0.208,0-0.415-0.067-0.554-0.27c-0.208-0.27-0.138-0.742,0.138-0.944l2.769-1.956h-3.462
				c-0.415,0-0.692-0.27-0.692-0.675c0-0.405,0.277-0.675,0.692-0.675h5.538c0.277,0,0.554,0.202,0.692,0.472
				c0.069,0.27,0,0.607-0.277,0.742L12.6,9.782C12.462,9.849,12.323,9.917,12.185,9.917z"/>
		</defs>
		<linearGradient id="SVGID_16_" gradientUnits="userSpaceOnUse" x1="10.3846" y1="7.6567" x2="17.3327" y2="7.6567">
			<stop  offset="0" style="stop-color:#84BE41"/>
			<stop  offset="1" style="stop-color:#19C4DA"/>
		</linearGradient>
		<use xlink:href="#SVGID_15_"  overflow="visible" fill-rule="evenodd" clip-rule="evenodd" fill="url(#SVGID_16_)"/>
		<clipPath id="SVGID_17_">
			<use xlink:href="#SVGID_15_"  overflow="visible"/>
		</clipPath>
		<g clip-path="url(#SVGID_17_)">
			<defs>
				<rect id="SVGID_18_" x="-36" y="-438" width="375" height="667"/>
			</defs>
			<linearGradient id="SVGID_19_" gradientUnits="userSpaceOnUse" x1="-36" y1="-104.5" x2="339" y2="-104.5">
				<stop  offset="0" style="stop-color:#84BE41"/>
				<stop  offset="1" style="stop-color:#19C4DA"/>
			</linearGradient>
			<use xlink:href="#SVGID_18_"  overflow="visible" fill="url(#SVGID_19_)"/>
			<clipPath id="SVGID_20_">
				<use xlink:href="#SVGID_18_"  overflow="visible"/>
			</clipPath>
			<linearGradient id="SVGID_21_" gradientUnits="userSpaceOnUse" x1="5.3846" y1="7.6567" x2="22.3327" y2="7.6567">
				<stop  offset="0" style="stop-color:#84BE41"/>
				<stop  offset="1" style="stop-color:#19C4DA"/>
			</linearGradient>
			<rect x="5.385" y="0.397" clip-path="url(#SVGID_20_)" fill="url(#SVGID_21_)" width="16.948" height="14.52"/>
		</g>
	</g>
	<g>
		<defs>
			<path id="SVGID_22_" d="M3.462,16.19c-0.138,0-0.277-0.067-0.415-0.135c-0.277-0.202-0.346-0.472-0.208-0.742l2.146-5.802
				L0.969,6.611C0.762,6.409,0.623,6.139,0.692,5.869c0.138-0.27,0.415-0.472,0.692-0.472h5.538c0.415,0,0.692,0.27,0.692,0.675
				c0,0.405-0.277,0.675-0.692,0.675H3.462l2.769,1.956c0.277,0.202,0.346,0.472,0.208,0.742l-1.592,4.183l3.669-2.631
				c0.277-0.202,0.762-0.135,0.969,0.135c0.208,0.27,0.138,0.742-0.138,0.944l-5.538,3.98C3.738,16.123,3.6,16.19,3.462,16.19z"/>
		</defs>
		<linearGradient id="SVGID_23_" gradientUnits="userSpaceOnUse" x1="0.6743" y1="10.7937" x2="9.6054" y2="10.7937">
			<stop  offset="0" style="stop-color:#84BE41"/>
			<stop  offset="1" style="stop-color:#19C4DA"/>
		</linearGradient>
		<use xlink:href="#SVGID_22_"  overflow="visible" fill-rule="evenodd" clip-rule="evenodd" fill="url(#SVGID_23_)"/>
		<clipPath id="SVGID_24_">
			<use xlink:href="#SVGID_22_"  overflow="visible"/>
		</clipPath>
		<g clip-path="url(#SVGID_24_)">
			<defs>
				<rect id="SVGID_25_" x="-36" y="-438" width="375" height="667"/>
			</defs>
			<linearGradient id="SVGID_26_" gradientUnits="userSpaceOnUse" x1="-36" y1="-104.5" x2="339" y2="-104.5">
				<stop  offset="0" style="stop-color:#84BE41"/>
				<stop  offset="1" style="stop-color:#19C4DA"/>
			</linearGradient>
			<use xlink:href="#SVGID_25_"  overflow="visible" fill="url(#SVGID_26_)"/>
			<clipPath id="SVGID_27_">
				<use xlink:href="#SVGID_25_"  overflow="visible"/>
			</clipPath>
			<linearGradient id="SVGID_28_" gradientUnits="userSpaceOnUse" x1="-4.3257" y1="10.7937" x2="14.6054" y2="10.7937">
				<stop  offset="0" style="stop-color:#84BE41"/>
				<stop  offset="1" style="stop-color:#19C4DA"/>
			</linearGradient>
			<rect x="-4.326" y="0.397" clip-path="url(#SVGID_27_)" fill="url(#SVGID_28_)" width="18.931" height="20.794"/>
		</g>
	</g>
	<g>
		<defs>
			<path id="SVGID_29_" d="M13.154,6.746h-2.077c-0.415,0-0.692-0.27-0.692-0.675c0-0.405,0.277-0.675,0.692-0.675h2.077
				c0.415,0,0.692,0.27,0.692,0.675C13.846,6.476,13.569,6.746,13.154,6.746z"/>
		</defs>
		<linearGradient id="SVGID_30_" gradientUnits="userSpaceOnUse" x1="10.3846" y1="6.0714" x2="13.8462" y2="6.0714">
			<stop  offset="0" style="stop-color:#84BE41"/>
			<stop  offset="1" style="stop-color:#19C4DA"/>
		</linearGradient>
		<use xlink:href="#SVGID_29_"  overflow="visible" fill-rule="evenodd" clip-rule="evenodd" fill="url(#SVGID_30_)"/>
		<clipPath id="SVGID_31_">
			<use xlink:href="#SVGID_29_"  overflow="visible"/>
		</clipPath>
		<g clip-path="url(#SVGID_31_)">
			<defs>
				<rect id="SVGID_32_" x="-36" y="-438" width="375" height="667"/>
			</defs>
			<linearGradient id="SVGID_33_" gradientUnits="userSpaceOnUse" x1="-36" y1="-104.5" x2="339" y2="-104.5">
				<stop  offset="0" style="stop-color:#84BE41"/>
				<stop  offset="1" style="stop-color:#19C4DA"/>
			</linearGradient>
			<use xlink:href="#SVGID_32_"  overflow="visible" fill="url(#SVGID_33_)"/>
			<clipPath id="SVGID_34_">
				<use xlink:href="#SVGID_32_"  overflow="visible"/>
			</clipPath>
			<linearGradient id="SVGID_35_" gradientUnits="userSpaceOnUse" x1="5.3846" y1="6.0714" x2="18.8462" y2="6.0714">
				<stop  offset="0" style="stop-color:#84BE41"/>
				<stop  offset="1" style="stop-color:#19C4DA"/>
			</linearGradient>
			<rect x="5.385" y="0.397" clip-path="url(#SVGID_34_)" fill="url(#SVGID_35_)" width="13.462" height="11.349"/>
		</g>
	</g>
</g>
</svg>
